<?xml version="1.0" encoding="UTF-8"?>
<svg width="256px" height="256px" viewBox="0 0 256 256" version="1.1" xmlns="http://www.w3.org/2000/svg" xmlns:xlink="http://www.w3.org/1999/xlink">
    <!-- Generator: Sketch 56.3 (81716) - https://sketch.com -->
    <title>Icons/Illustrative/global/flag-usa-256x256</title>
    <desc>Created with Sketch.</desc>
    <g id="Icons/Illustrative/global/flag-usa-256x256" stroke="none" stroke-width="1" fill="none" fill-rule="evenodd">
        <g id="Icons/Illustrative/Oval" fill="#F2F3F2">
            <circle id="Oval" cx="128" cy="128" r="128"></circle>
        </g>
        <g id="Group-69" transform="translate(47.000000, 86.000000)">
            <polygon id="Fill-1" fill="#C41F3E" points="1.0864 76.2097 1.0934 82.5447 162.8064 82.3617 162.7984 76.0247"></polygon>
            <polygon id="Fill-2" fill="#C41F3E" points="1.072 63.5386 1.079 69.8736 162.792 69.6896 162.785 63.3536"></polygon>
            <polygon id="Fill-3" fill="#C41F3E" points="1.0576 50.8675 1.0646 57.2025 162.7766 57.0195 162.7706 50.6835"></polygon>
            <polygon id="Fill-4" fill="#C41F3E" points="66.0718 38.1226 66.0798 44.4576 162.7628 44.3476 162.7558 38.0126"></polygon>
            <polygon id="Fill-5" fill="#C41F3E" points="162.7129 0.0004 66.0299 0.1104 66.0369 6.4454 162.7189 6.3354"></polygon>
            <polygon id="Fill-6" fill="#C41F3E" points="66.0583 25.4515 66.0633 29.6755 66.0653 31.7875 162.7493 31.6775 162.7403 25.3415"></polygon>
            <polygon id="Fill-7" fill="#C41F3E" points="66.0439 12.7813 66.0509 19.1163 162.7349 19.0063 162.7269 12.6703"></polygon>
            <polygon id="Fill-8" fill="#FFFFFF" points="1.0792 69.8737 1.0862 76.2097 162.7982 76.0247 162.7922 69.6897"></polygon>
            <polygon id="Fill-9" fill="#FFFFFF" points="1.0648 57.2026 1.0718 63.5386 162.7848 63.3536 162.7768 57.0186"></polygon>
            <polygon id="Fill-10" fill="#FFFFFF" points="66.0799 44.4577 1.0509 44.5317 1.0579 50.8677 162.7709 50.6827 162.7619 44.3477"></polygon>
            <path d="M66.0799,44.4577 L162.7619,44.3477 L66.0799,44.4577 Z" id="Fill-11" fill="#FFFFFF"></path>
            <polygon id="Fill-12" fill="#FFFFFF" points="66.0655 31.7875 66.0715 38.1225 162.7565 38.0125 162.7485 31.6775"></polygon>
            <polygon id="Fill-13" fill="#FFFFFF" points="66.0511 19.1164 66.0581 25.4514 162.7411 25.3414 162.7341 19.0064"></polygon>
            <polygon id="Fill-14" fill="#FFFFFF" points="66.0367 6.4453 66.0437 12.7813 162.7277 12.6703 162.7187 6.3353"></polygon>
            <path d="M1,0.184 L1.05,44.532 L66.08,44.458 L66.072,38.123 L66.066,31.788 L66.063,29.675 L66.029,0.11 L1,0.184 Z M59.078,6.175 L57.886,5.017 L59.531,4.776 L60.265,3.285 L61.002,4.774 L62.647,5.012 L61.458,6.173 L61.742,7.812 L60.27,7.039 L58.799,7.814 L59.078,6.175 Z M50.071,6.186 L48.879,5.027 L50.523,4.786 L51.258,3.294 L51.995,4.784 L53.64,5.022 L52.451,6.183 L52.735,7.821 L51.262,7.049 L49.792,7.825 L50.071,6.186 Z M41.064,6.196 L39.872,5.037 L41.517,4.796 L42.251,3.305 L42.989,4.795 L44.634,5.032 L43.444,6.193 L43.728,7.831 L42.255,7.06 L40.785,7.835 L41.064,6.196 Z M32.056,6.206 L30.865,5.048 L32.51,4.806 L33.244,3.315 L33.981,4.805 L35.627,5.042 L34.438,6.204 L34.72,7.842 L33.248,7.07 L31.777,7.846 L32.056,6.206 Z M23.05,6.217 L21.857,5.058 L23.503,4.816 L24.237,3.325 L24.974,4.815 L26.619,5.052 L25.43,6.214 L25.713,7.852 L24.241,7.08 L22.77,7.856 L23.05,6.217 Z M14.043,6.227 L12.851,5.068 L14.495,4.827 L15.229,3.336 L15.967,4.825 L17.612,5.063 L16.423,6.224 L16.706,7.863 L15.234,7.091 L13.764,7.866 L14.043,6.227 Z M5.036,6.237 L3.844,5.078 L5.488,4.837 L6.223,3.346 L6.96,4.835 L8.605,5.073 L7.416,6.235 L7.699,7.873 L6.227,7.101 L4.757,7.875 L5.036,6.237 Z M54.581,11.762 L53.389,10.602 L55.034,10.361 L55.768,8.87 L56.505,10.36 L58.15,10.597 L56.961,11.759 L57.244,13.397 L55.772,12.625 L54.302,13.4 L54.581,11.762 Z M45.573,11.772 L44.382,10.613 L46.027,10.372 L46.76,8.881 L47.498,10.37 L49.144,10.607 L47.955,11.769 L48.237,13.408 L46.765,12.636 L45.294,13.41 L45.573,11.772 Z M36.567,11.782 L35.375,10.623 L37.02,10.382 L37.754,8.891 L38.491,10.38 L40.137,10.618 L38.947,11.78 L39.23,13.418 L37.758,12.645 L36.287,13.42 L36.567,11.782 Z M27.559,11.792 L26.368,10.633 L28.013,10.392 L28.746,8.901 L29.484,10.391 L31.129,10.628 L29.94,11.79 L30.223,13.428 L28.751,12.656 L27.28,13.431 L27.559,11.792 Z M18.553,11.802 L17.361,10.643 L19.005,10.403 L19.74,8.91 L20.477,10.401 L22.122,10.638 L20.933,11.8 L21.216,13.438 L19.744,12.666 L18.274,13.441 L18.553,11.802 Z M9.546,11.813 L8.354,10.654 L9.998,10.413 L10.733,8.921 L11.47,10.412 L13.115,10.648 L11.926,11.81 L12.209,13.448 L10.737,12.676 L9.266,13.451 L9.546,11.813 Z M59.09,17.337 L57.899,16.178 L59.544,15.937 L60.278,14.445 L61.015,15.936 L62.66,16.173 L61.471,17.334 L61.755,18.972 L60.282,18.201 L58.812,18.976 L59.09,17.337 Z M50.083,17.347 L48.892,16.188 L50.537,15.948 L51.27,14.455 L52.008,15.946 L53.654,16.182 L52.464,17.344 L52.747,18.982 L51.275,18.211 L49.804,18.986 L50.083,17.347 Z M41.076,17.358 L39.885,16.199 L41.53,15.957 L42.263,14.466 L43.001,15.956 L44.646,16.193 L43.457,17.355 L43.74,18.993 L42.268,18.221 L40.797,18.996 L41.076,17.358 Z M32.069,17.368 L30.878,16.209 L32.523,15.968 L33.256,14.476 L33.994,15.966 L35.639,16.203 L34.45,17.365 L34.733,19.003 L33.26,18.231 L31.791,19.007 L32.069,17.368 Z M23.063,17.379 L21.87,16.219 L23.515,15.978 L24.25,14.487 L24.987,15.976 L26.632,16.214 L25.443,17.375 L25.726,19.013 L24.254,18.242 L22.783,19.017 L23.063,17.379 Z M14.055,17.388 L12.864,16.229 L14.508,15.988 L15.243,14.497 L15.98,15.987 L17.625,16.224 L16.436,17.386 L16.719,19.024 L15.246,18.252 L13.776,19.027 L14.055,17.388 Z M5.048,17.398 L3.857,16.239 L5.501,15.999 L6.235,14.507 L6.972,15.997 L8.618,16.234 L7.429,17.396 L7.712,19.034 L6.24,18.261 L4.769,19.037 L5.048,17.398 Z M54.593,22.923 L53.402,21.764 L55.046,21.523 L55.78,20.032 L56.518,21.521 L58.163,21.759 L56.974,22.92 L57.256,24.558 L55.785,23.787 L54.314,24.561 L54.593,22.923 Z M45.586,22.933 L44.394,21.774 L46.04,21.533 L46.773,20.042 L47.51,21.531 L49.156,21.769 L47.967,22.931 L48.25,24.569 L46.778,23.796 L45.307,24.572 L45.586,22.933 Z M36.58,22.943 L35.387,21.784 L37.032,21.544 L37.767,20.052 L38.504,21.542 L40.149,21.779 L38.96,22.941 L39.243,24.579 L37.77,23.807 L36.3,24.582 L36.58,22.943 Z M27.572,22.954 L26.381,21.795 L28.025,21.554 L28.76,20.062 L29.497,21.552 L31.142,21.789 L29.953,22.95 L30.236,24.589 L28.763,23.817 L27.293,24.592 L27.572,22.954 Z M18.565,22.964 L17.374,21.805 L19.018,21.564 L19.752,20.072 L20.49,21.562 L22.135,21.799 L20.946,22.961 L21.229,24.599 L19.757,23.827 L18.286,24.603 L18.565,22.964 Z M9.558,22.974 L8.367,21.816 L10.011,21.574 L10.745,20.083 L11.482,21.573 L13.128,21.81 L11.939,22.971 L12.221,24.609 L10.75,23.838 L9.279,24.613 L9.558,22.974 Z M59.103,28.499 L57.911,27.34 L59.557,27.099 L60.29,25.607 L61.027,27.097 L62.673,27.334 L61.484,28.495 L61.767,30.134 L60.295,29.362 L58.824,30.137 L59.103,28.499 Z M50.096,28.509 L48.904,27.35 L50.549,27.109 L51.283,25.617 L52.02,27.108 L53.666,27.344 L52.477,28.506 L52.76,30.144 L51.288,29.372 L49.817,30.148 L50.096,28.509 Z M41.09,28.52 L39.897,27.36 L41.542,27.119 L42.276,25.628 L43.014,27.117 L44.659,27.355 L43.469,28.516 L43.753,30.154 L42.28,29.383 L40.81,30.158 L41.09,28.52 Z M32.081,28.529 L30.891,27.37 L32.535,27.129 L33.269,25.638 L34.007,27.127 L35.652,27.365 L34.463,28.527 L34.745,30.165 L33.273,29.393 L31.803,30.168 L32.081,28.529 Z M23.075,28.539 L21.884,27.38 L23.528,27.139 L24.262,25.648 L24.999,27.138 L26.645,27.375 L25.456,28.537 L25.738,30.175 L24.267,29.403 L22.796,30.178 L23.075,28.539 Z M14.068,28.549 L12.876,27.391 L14.521,27.15 L15.255,25.659 L15.992,27.148 L17.637,27.386 L16.449,28.547 L16.731,30.186 L15.26,29.413 L13.789,30.188 L14.068,28.549 Z M5.061,28.56 L3.869,27.401 L5.514,27.16 L6.248,25.668 L6.985,27.158 L8.631,27.396 L7.441,28.557 L7.725,30.195 L6.252,29.423 L4.782,30.199 L5.061,28.56 Z M54.607,34.084 L53.414,32.925 L55.059,32.684 L55.793,31.193 L56.531,32.683 L58.176,32.92 L56.986,34.082 L57.27,35.72 L55.797,34.948 L54.327,35.723 L54.607,34.084 Z M45.599,34.094 L44.407,32.936 L46.052,32.695 L46.786,31.203 L47.524,32.693 L49.169,32.931 L47.98,34.092 L48.263,35.73 L46.79,34.958 L45.32,35.733 L45.599,34.094 Z M36.592,34.105 L35.401,32.946 L37.045,32.705 L37.779,31.213 L38.516,32.703 L40.162,32.94 L38.973,34.102 L39.255,35.74 L37.783,34.968 L36.313,35.744 L36.592,34.105 Z M27.585,34.115 L26.393,32.957 L28.038,32.715 L28.772,31.224 L29.509,32.714 L31.154,32.951 L29.966,34.112 L30.248,35.75 L28.776,34.979 L27.305,35.754 L27.585,34.115 Z M18.578,34.125 L17.386,32.967 L19.031,32.725 L19.765,31.234 L20.502,32.724 L22.147,32.96 L20.958,34.123 L21.241,35.761 L19.77,34.989 L18.299,35.765 L18.578,34.125 Z M9.571,34.136 L8.379,32.976 L10.023,32.735 L10.758,31.244 L11.495,32.734 L13.14,32.971 L11.951,34.133 L12.235,35.771 L10.762,34.999 L9.292,35.774 L9.571,34.136 Z M59.116,39.66 L57.924,38.501 L59.569,38.26 L60.303,36.768 L61.041,38.259 L62.685,38.495 L61.496,39.657 L61.78,41.295 L60.307,40.524 L58.837,41.299 L59.116,39.66 Z M50.109,39.67 L48.918,38.511 L50.562,38.27 L51.296,36.778 L52.033,38.268 L53.679,38.505 L52.49,39.668 L52.773,41.305 L51.3,40.534 L49.83,41.31 L50.109,39.67 Z M41.102,39.681 L39.91,38.521 L41.555,38.28 L42.289,36.789 L43.026,38.279 L44.672,38.516 L43.483,39.678 L43.765,41.316 L42.293,40.545 L40.822,41.319 L41.102,39.681 Z M32.095,39.69 L30.903,38.531 L32.548,38.291 L33.281,36.799 L34.019,38.289 L35.664,38.526 L34.475,39.688 L34.758,41.326 L33.286,40.554 L31.816,41.329 L32.095,39.69 Z M23.088,39.701 L21.896,38.542 L23.54,38.301 L24.275,36.81 L25.012,38.299 L26.657,38.537 L25.468,39.698 L25.751,41.337 L24.279,40.564 L22.809,41.339 L23.088,39.701 Z M14.081,39.711 L12.889,38.552 L14.533,38.312 L15.268,36.819 L16.005,38.309 L17.65,38.547 L16.461,39.708 L16.744,41.346 L15.272,40.575 L13.802,41.35 L14.081,39.711 Z M5.073,39.721 L3.882,38.562 L5.527,38.322 L6.26,36.829 L6.998,38.32 L8.644,38.556 L7.454,39.718 L7.737,41.357 L6.265,40.585 L4.794,41.36 L5.073,39.721 Z" id="Fill-15" fill="#8B1D41"></path>
            <path d="M66.0799,44.4577 L66.0719,38.1227 L66.0799,44.4577 Z" id="Fill-16" fill="#8B1D41"></path>
            <path d="M66.0655,31.7875 L66.0625,29.6755 L66.0655,31.7875 Z" id="Fill-17" fill="#8B1D41"></path>
            <path d="M1.0504,44.5315 L66.0794,44.4575 L1.0504,44.5315 Z" id="Fill-18" fill="#8B1D41"></path>
            <path d="" id="Fill-19" fill="#8B1D41"></path>
            <path d="M66.0718,38.1226 L66.0658,31.7876 L66.0718,38.1226 Z" id="Fill-22" fill="#8B1D41"></path>
            <polygon id="Fill-23" fill="#FFFFFF" points="4.7562 7.8756 6.2272 7.1006 7.6992 7.8726 7.4162 6.2346 8.6052 5.0726 6.9602 4.8356 6.2222 3.3456 5.4882 4.8366 3.8432 5.0786 5.0352 6.2366"></polygon>
            <polygon id="Fill-24" fill="#FFFFFF" points="13.7635 7.8658 15.2335 7.0908 16.7055 7.8628 16.4235 6.2238 17.6125 5.0628 15.9675 4.8248 15.2295 3.3358 14.4955 4.8268 12.8505 5.0678 14.0425 6.2268"></polygon>
            <polygon id="Fill-25" fill="#FFFFFF" points="22.7704 7.8556 24.2414 7.0806 25.7134 7.8526 25.4304 6.2136 26.6194 5.0526 24.9744 4.8146 24.2364 3.3256 23.5024 4.8166 21.8574 5.0576 23.0494 6.2166"></polygon>
            <polygon id="Fill-26" fill="#FFFFFF" points="31.7777 7.8453 33.2477 7.0703 34.7197 7.8423 34.4377 6.2033 35.6267 5.0423 33.9817 4.8043 33.2437 3.3153 32.5097 4.8063 30.8647 5.0473 32.0567 6.2063"></polygon>
            <polygon id="Fill-27" fill="#FFFFFF" points="40.7845 7.8351 42.2555 7.0601 43.7275 7.8321 43.4445 6.1931 44.6335 5.0321 42.9885 4.7941 42.2505 3.3051 41.5165 4.7961 39.8715 5.0371 41.0635 6.1961"></polygon>
            <polygon id="Fill-28" fill="#FFFFFF" points="49.7919 7.8248 51.2619 7.0498 52.7339 7.8218 52.4519 6.1828 53.6409 5.0218 51.9949 4.7838 51.2579 3.2948 50.5239 4.7858 48.8789 5.0268 50.0709 6.1858"></polygon>
            <polygon id="Fill-29" fill="#FFFFFF" points="58.7987 7.8146 60.2697 7.0396 61.7417 7.8116 61.4587 6.1726 62.6477 5.0116 61.0027 4.7736 60.2647 3.2846 59.5307 4.7756 57.8857 5.0166 59.0777 6.1756"></polygon>
            <polygon id="Fill-30" fill="#FFFFFF" points="4.7689 19.0372 6.2399 18.2622 7.7119 19.0342 7.4289 17.3952 8.6179 16.2342 6.9729 15.9962 6.2349 14.5072 5.5009 15.9982 3.8559 16.2392 5.0479 17.3982"></polygon>
            <polygon id="Fill-31" fill="#FFFFFF" points="15.9799 15.9869 15.2419 14.4969 14.5079 15.9879 12.8639 16.2289 14.0549 17.3879 13.7759 19.0269 15.2469 18.2519 16.7189 19.0239 16.4359 17.3849 17.6249 16.2239"></polygon>
            <polygon id="Fill-32" fill="#FFFFFF" points="24.9867 15.9762 24.2497 14.4862 23.5157 15.9782 21.8707 16.2192 23.0627 17.3782 22.7827 19.0172 24.2537 18.2422 25.7257 19.0132 25.4437 17.3752 26.6327 16.2132"></polygon>
            <polygon id="Fill-33" fill="#FFFFFF" points="33.994 15.9664 33.256 14.4764 32.522 15.9674 30.878 16.2084 32.069 17.3674 31.79 19.0064 33.261 18.2314 34.733 19.0034 34.45 17.3644 35.639 16.2034"></polygon>
            <polygon id="Fill-34" fill="#FFFFFF" points="43.0009 15.9557 42.2639 14.4657 41.5299 15.9577 39.8849 16.1987 41.0769 17.3577 40.7969 18.9967 42.2679 18.2217 43.7399 18.9927 43.4569 17.3547 44.6469 16.1927"></polygon>
            <polygon id="Fill-35" fill="#FFFFFF" points="52.0077 15.9459 51.2707 14.4559 50.5367 15.9469 48.8917 16.1879 50.0837 17.3469 49.8047 18.9859 51.2747 18.2109 52.7467 18.9829 52.4647 17.3439 53.6537 16.1829"></polygon>
            <polygon id="Fill-36" fill="#FFFFFF" points="61.015 15.9357 60.278 14.4457 59.544 15.9367 57.899 16.1777 59.091 17.3367 58.811 18.9757 60.282 18.2007 61.754 18.9727 61.471 17.3347 62.66 16.1727"></polygon>
            <polygon id="Fill-37" fill="#FFFFFF" points="4.7816 30.1989 6.2526 29.4239 7.7246 30.1959 7.4416 28.5569 8.6306 27.3959 6.9856 27.1579 6.2476 25.6689 5.5136 27.1599 3.8686 27.4009 5.0606 28.5599"></polygon>
            <polygon id="Fill-38" fill="#FFFFFF" points="15.9926 27.1481 15.2546 25.6581 14.5206 27.1491 12.8766 27.3911 14.0676 28.5491 13.7886 30.1891 15.2596 29.4131 16.7316 30.1851 16.4486 28.5471 17.6376 27.3851"></polygon>
            <polygon id="Fill-39" fill="#FFFFFF" points="24.9994 27.1378 24.2624 25.6478 23.5284 27.1388 21.8834 27.3808 23.0754 28.5398 22.7954 30.1788 24.2664 29.4028 25.7384 30.1748 25.4564 28.5368 26.6454 27.3748"></polygon>
            <polygon id="Fill-40" fill="#FFFFFF" points="34.0067 27.1276 33.2687 25.6376 32.5347 27.1296 30.8907 27.3706 32.0817 28.5286 31.8027 30.1686 33.2737 29.3926 34.7457 30.1646 34.4627 28.5266 35.6517 27.3646"></polygon>
            <polygon id="Fill-41" fill="#FFFFFF" points="43.0135 27.1173 42.2765 25.6273 41.5425 27.1183 39.8975 27.3603 41.0895 28.5193 40.8095 30.1583 42.2805 29.3823 43.7525 30.1543 43.4695 28.5163 44.6595 27.3543"></polygon>
            <polygon id="Fill-42" fill="#FFFFFF" points="52.0204 27.1071 51.2834 25.6171 50.5494 27.1091 48.9044 27.3501 50.0964 28.5091 49.8174 30.1481 51.2874 29.3721 52.7594 30.1441 52.4774 28.5061 53.6664 27.3441"></polygon>
            <polygon id="Fill-43" fill="#FFFFFF" points="61.0277 27.0968 60.2907 25.6068 59.5567 27.0988 57.9117 27.3398 59.1037 28.4988 58.8237 30.1378 60.2947 29.3618 61.7667 30.1338 61.4837 28.4958 62.6727 27.3338"></polygon>
            <polygon id="Fill-44" fill="#FFFFFF" points="6.9979 38.3199 6.2609 36.8299 5.5269 38.3209 3.8819 38.5619 5.0739 39.7209 4.7939 41.3599 6.2649 40.5849 7.7369 41.3569 7.4539 39.7179 8.6439 38.5569"></polygon>
            <polygon id="Fill-45" fill="#FFFFFF" points="16.0052 38.3092 15.2672 36.8192 14.5332 38.3112 12.8892 38.5522 14.0802 39.7112 13.8012 41.3502 15.2722 40.5752 16.7442 41.3462 16.4612 39.7082 17.6502 38.5462"></polygon>
            <polygon id="Fill-46" fill="#FFFFFF" points="25.0121 38.2994 24.2751 36.8094 23.5411 38.3004 21.8961 38.5414 23.0881 39.7004 22.8081 41.3394 24.2791 40.5644 25.7511 41.3364 25.4691 39.6974 26.6581 38.5364"></polygon>
            <polygon id="Fill-47" fill="#FFFFFF" points="34.0194 38.2892 33.2814 36.7992 32.5474 38.2902 30.9034 38.5312 32.0944 39.6902 31.8154 41.3302 33.2864 40.5542 34.7584 41.3262 34.4754 39.6882 35.6644 38.5262"></polygon>
            <polygon id="Fill-48" fill="#FFFFFF" points="43.0262 38.2789 42.2892 36.7889 41.5552 38.2799 39.9102 38.5209 41.1022 39.6799 40.8222 41.3189 42.2932 40.5439 43.7652 41.3159 43.4822 39.6769 44.6722 38.5159"></polygon>
            <polygon id="Fill-49" fill="#FFFFFF" points="52.0331 38.2687 51.2961 36.7787 50.5621 38.2697 48.9171 38.5117 50.1091 39.6697 49.8301 41.3097 51.3001 40.5337 52.7721 41.3057 52.4901 39.6677 53.6791 38.5057"></polygon>
            <polygon id="Fill-50" fill="#FFFFFF" points="61.0404 38.2584 60.3034 36.7684 59.5694 38.2594 57.9244 38.5004 59.1164 39.6594 58.8364 41.2984 60.3074 40.5234 61.7794 41.2954 61.4964 39.6574 62.6854 38.4954"></polygon>
            <polygon id="Fill-51" fill="#FFFFFF" points="13.1405 32.9713 11.4945 32.7343 10.7575 31.2433 10.0235 32.7353 8.3795 32.9763 9.5705 34.1353 9.2915 35.7743 10.7625 34.9993 12.2345 35.7713 11.9515 34.1333"></polygon>
            <polygon id="Fill-52" fill="#FFFFFF" points="22.1473 32.9606 20.5023 32.7236 19.7653 31.2336 19.0313 32.7256 17.3863 32.9666 18.5783 34.1256 18.2983 35.7646 19.7693 34.9886 21.2413 35.7606 20.9583 34.1226"></polygon>
            <polygon id="Fill-53" fill="#FFFFFF" points="31.1547 32.9508 29.5087 32.7138 28.7717 31.2238 28.0377 32.7148 26.3937 32.9558 27.5847 34.1148 27.3057 35.7538 28.7767 34.9788 30.2487 35.7508 29.9657 34.1128"></polygon>
            <polygon id="Fill-54" fill="#FFFFFF" points="40.1615 32.9406 38.5165 32.7036 37.7795 31.2136 37.0445 32.7046 35.4005 32.9456 36.5925 34.1046 36.3125 35.7436 37.7835 34.9686 39.2555 35.7406 38.9725 34.1026"></polygon>
            <polygon id="Fill-55" fill="#FFFFFF" points="49.1688 32.9303 47.5228 32.6933 46.7858 31.2033 46.0518 32.6943 44.4068 32.9353 45.5988 34.0943 45.3198 35.7333 46.7908 34.9583 48.2628 35.7303 47.9798 34.0923"></polygon>
            <polygon id="Fill-56" fill="#FFFFFF" points="58.1757 32.92 56.5307 32.683 55.7937 31.193 55.0587 32.684 53.4147 32.925 54.6067 34.084 54.3267 35.723 55.7977 34.948 57.2697 35.72 56.9867 34.082"></polygon>
            <polygon id="Fill-57" fill="#FFFFFF" points="11.4823 21.5724 10.7453 20.0824 10.0113 21.5744 8.3663 21.8154 9.5583 22.9744 9.2793 24.6134 10.7493 23.8374 12.2213 24.6094 11.9393 22.9714 13.1283 21.8094"></polygon>
            <polygon id="Fill-58" fill="#FFFFFF" points="20.4896 21.5621 19.7526 20.0721 19.0186 21.5641 17.3736 21.8051 18.5656 22.9641 18.2856 24.6031 19.7566 23.8271 21.2286 24.5991 20.9456 22.9611 22.1346 21.7991"></polygon>
            <polygon id="Fill-59" fill="#FFFFFF" points="29.4965 21.5519 28.7595 20.0619 28.0255 21.5539 26.3805 21.7949 27.5725 22.9539 27.2925 24.5929 28.7635 23.8169 30.2355 24.5889 29.9535 22.9509 31.1425 21.7889"></polygon>
            <polygon id="Fill-60" fill="#FFFFFF" points="38.5038 21.5416 37.7668 20.0516 37.0318 21.5436 35.3878 21.7846 36.5798 22.9436 36.2998 24.5826 37.7708 23.8066 39.2428 24.5786 38.9598 22.9406 40.1488 21.7786"></polygon>
            <polygon id="Fill-61" fill="#FFFFFF" points="47.5106 21.5314 46.7736 20.0414 46.0396 21.5334 44.3946 21.7744 45.5866 22.9334 45.3066 24.5724 46.7776 23.7964 48.2496 24.5684 47.9676 22.9304 49.1566 21.7684"></polygon>
            <polygon id="Fill-62" fill="#FFFFFF" points="56.5179 21.5211 55.7809 20.0311 55.0459 21.5231 53.4019 21.7641 54.5939 22.9231 54.3139 24.5621 55.7849 23.7861 57.2569 24.5581 56.9739 22.9201 58.1629 21.7581"></polygon>
            <polygon id="Fill-63" fill="#FFFFFF" points="9.5453 11.8126 9.2663 13.4516 10.7363 12.6766 12.2093 13.4476 11.9263 11.8106 13.1153 10.6476 11.4693 10.4116 10.7323 8.9206 9.9983 10.4126 8.3543 10.6536"></polygon>
            <polygon id="Fill-64" fill="#FFFFFF" points="18.5526 11.8024 18.2736 13.4414 19.7436 12.6664 21.2166 13.4384 20.9326 11.8004 22.1216 10.6384 20.4766 10.4014 19.7396 8.9104 19.0056 10.4024 17.3606 10.6434"></polygon>
            <polygon id="Fill-65" fill="#FFFFFF" points="27.5594 11.7921 27.2804 13.4311 28.7504 12.6561 30.2234 13.4271 29.9404 11.7901 31.1294 10.6271 29.4834 10.3911 28.7464 8.9011 28.0124 10.3921 26.3684 10.6331"></polygon>
            <polygon id="Fill-66" fill="#FFFFFF" points="36.5668 11.7819 36.2878 13.4209 37.7578 12.6459 39.2308 13.4179 38.9468 11.7799 40.1358 10.6179 38.4908 10.3809 37.7538 8.8899 37.0198 10.3819 35.3748 10.6229"></polygon>
            <polygon id="Fill-67" fill="#FFFFFF" points="45.5736 11.7716 45.2946 13.4106 46.7646 12.6356 48.2376 13.4076 47.9546 11.7696 49.1436 10.6066 47.4976 10.3706 46.7606 8.8806 46.0266 10.3716 44.3816 10.6126"></polygon>
            <polygon id="Fill-68" fill="#FFFFFF" points="54.5809 11.7614 54.3019 13.4004 55.7719 12.6254 57.2439 13.3974 56.9609 11.7594 58.1499 10.5974 56.5049 10.3604 55.7679 8.8694 55.0339 10.3614 53.3889 10.6024"></polygon>
        </g>
    </g>
</svg>