<?xml version="1.0" encoding="UTF-8"?>
<svg width="256px" height="256px" viewBox="0 0 256 256" version="1.1" xmlns="http://www.w3.org/2000/svg" xmlns:xlink="http://www.w3.org/1999/xlink">
    <title>Newcomer Grey</title>
    <defs>
        <rect id="path-1" x="0.210151978" y="-0.540459257" width="87" height="128" rx="6"></rect>
        <path d="M6.03609248,11.6436573 C9.09925324,6.96373624 14.0193804,3.66205389 19.7184917,2.84179065 C18.6651317,4.06088847 17.620208,5.43225073 16.6365946,6.94114216 C15.6424848,8.46673356 14.7709957,10.0355484 14.0417464,11.6436573 L6.03609248,11.6436573 Z M5.45182983,13.8932415 L13.1251329,13.8932415 C12.2058707,16.4365488 11.6490751,19.0682676 11.5272393,21.7677687 L2.73190867,21.7677687 C2.88660682,18.8796562 3.63331724,16.1516669 4.85010601,13.7105242 C5.02305011,13.8264416 5.2297394,13.8932415 5.45182983,13.8932415 Z M15.4857266,13.8932415 C14.4777853,16.4414605 13.8644861,19.0751441 13.7299958,21.7677687 L31.2755326,21.7677687 C31.1489882,19.0741617 30.5711999,16.4404782 29.6216259,13.8932415 L15.4857266,13.8932415 Z M31.9651509,13.8932415 C32.8352667,16.4375311 33.3620448,19.0682676 33.4777986,21.7677687 L42.2721483,21.7677687 C42.1171558,18.8796562 41.3706416,16.1516669 40.1532643,13.7105242 C39.9806145,13.8264416 39.7736309,13.8932415 39.5519328,13.8932415 L31.9651509,13.8932415 Z M31.2755326,24.0183352 L13.7299958,24.0183352 C13.8644861,26.7119422 14.4777853,29.3456257 15.4856285,31.8928624 L29.6216259,31.8928624 C30.5711999,29.3466081 31.1489882,26.7129246 31.2755326,24.0183352 Z M31.9651509,31.8928624 C32.8352667,29.3495551 33.3620448,26.7178363 33.4777986,24.0183352 L42.2721483,24.0183352 C42.1171558,26.9074301 41.3706416,29.634437 40.1532643,32.076562 C39.9806145,31.9606446 39.7736309,31.8928624 39.5519328,31.8928624 L31.9651509,31.8928624 Z M28.677153,34.143429 L16.4876841,34.143429 C17.0686115,35.3163563 17.7313513,36.4686542 18.4670749,37.5973757 C19.5170016,39.2074493 20.6424625,40.6534703 21.766452,41.9089151 C22.1557969,42.3440967 22.4928565,42.6997078 22.7623275,42.9718191 C23.0127678,42.7036372 23.3232432,42.3558849 23.6806087,41.9324915 C24.7417183,40.6770467 25.8043975,39.2320081 26.7959568,37.6219345 C27.495679,36.4853542 28.1255565,35.3251974 28.677153,34.143429 Z M25.7919393,42.8647428 C26.7716288,41.6593979 27.7428821,40.3067003 28.6577299,38.820403 C29.592197,37.3026704 30.4113026,35.7426967 31.097978,34.143429 L38.9672778,34.143429 C35.9959353,38.6838561 31.2755326,41.9265974 25.7919393,42.8647428 Z M22.9521442,45.388403 C23.0374881,45.3962618 23.1236168,45.3942971 23.2086665,45.3815266 C35.0316469,45.0003743 44.5018813,35.0776449 44.5018813,22.8935431 C44.5018813,10.708459 35.0316469,0.786711958 23.2085684,0.404577346 C23.1236168,0.392789131 23.0374881,0.389842078 22.9521442,0.397700887 C22.8034299,0.394753834 22.6543233,0.393771483 22.5049223,0.393771483 L22.5018813,0.393771483 L22.4971727,0.393771483 C10.3491005,0.395736185 0.501881334,10.4687653 0.501881334,22.8935431 C0.501881334,35.3173386 10.3474329,45.388403 22.4942298,45.3933148 L22.50865,45.3933148 C22.6568738,45.3933148 22.8047052,45.3913501 22.9521442,45.388403 Z M22.7623275,2.81428481 C22.4928565,3.08639609 22.1557969,3.44200722 21.766452,3.8771888 C20.6424625,5.13361597 19.5170016,6.57865457 18.4670749,8.18971052 C17.7313513,9.31843204 17.0686115,10.47073 16.4876841,11.6436573 L28.677153,11.6436573 C28.1254584,10.4618888 27.495679,9.30074972 26.7959568,8.16416939 C25.8043975,6.55409579 24.7417183,5.10905719 23.6806087,3.85361237 C23.3232432,3.43120136 23.0127678,3.08344904 22.7623275,2.81428481 Z M25.7919393,2.92136109 C26.7716288,4.12768835 27.7428821,5.48038594 28.6577299,6.96570094 C29.592197,8.48343353 30.4113026,10.0443896 31.097978,11.6436573 L38.9672778,11.6436573 C35.9959353,7.10224776 31.2755326,3.85950648 25.7919393,2.92136109 Z M2.73190867,24.0183352 L11.5272393,24.0183352 C11.6490751,26.7188187 12.2058707,29.3495551 13.1251329,31.8928624 L5.45182983,31.8928624 C5.2297394,31.8928624 5.02305011,31.9606446 4.85010601,32.076562 C3.63331724,29.634437 2.88660682,26.9074301 2.73190867,24.0183352 Z M6.03609248,34.143429 L14.0417464,34.143429 C14.7709957,35.7515378 15.6424848,37.3203527 16.6365946,38.8449617 C17.620208,40.3538532 18.6651317,41.7252154 19.7184917,42.9443133 C14.0193804,42.1250324 9.09925324,38.82335 6.03609248,34.143429 Z" id="path-3"></path>
    </defs>
    <g id="Newcomer-Grey" stroke="none" stroke-width="1" fill="none" fill-rule="evenodd">
        <g id="newcomer-grey-256x256">
            <g id="Icons/Illustrative/Oval" fill="#F2F3F2" fill-rule="nonzero">
                <circle id="Oval" cx="128" cy="128" r="128"></circle>
            </g>
            <path d="M137.953805,41.0923594 L205.792146,59.0221023 L188.338822,125.058341 C187.908268,125.110422 187.47634,125.181636 187.043975,125.272596 C178.991941,126.966564 173.83771,134.86726 175.531678,142.919294 C176.314696,146.641262 178.423877,149.74407 181.261163,151.837558 L163.485413,219.092359 L95.6470725,201.162617 L137.953805,41.0923594 Z" id="Combined-Shape" fill="#C41F3E" fill-rule="nonzero"></path>
            <polygon id="Rectangle" fill="#FFFFFF" fill-rule="nonzero" points="120.245838 151.418064 168.793825 163.306752 168.336567 165.173986 119.78858 153.285298"></polygon>
            <polygon id="Rectangle" fill="#FFFFFF" fill-rule="nonzero" points="117.901212 159.091386 166.449199 170.980074 165.991941 172.847308 117.443954 160.95862"></polygon>
            <polygon id="Rectangle" fill="#FFFFFF" fill-rule="nonzero" points="122.588499 143.743761 171.136486 155.632448 170.679228 157.499682 122.131241 145.610995"></polygon>
            <path d="M169,64 L168.745,64.926 L168.947834,65.8820297 C169.351638,67.7703181 169.771841,69.6778434 170.182205,71.6087514 C170.255094,71.9546707 170.270643,72.5744756 170.495141,72.7053747 C170.912064,72.94457 171.630261,72.6922061 171.990818,72.5996334 C173.342661,72.2513555 174.753787,71.8529586 176.025938,71.5757318 C174.167761,75.1093175 172.305697,78.7195558 170.397956,82.3150532 C170.220107,82.6507522 169.67004,83.6922446 170.022822,83.9245609 C170.348391,84.1386967 170.920811,83.8557701 171.140449,83.7451152 C171.694403,83.4659229 172.217259,83.0348013 172.776072,82.6679499 C174.369906,81.6238042 176.070643,80.4369667 177.639209,79.487654 C177.681971,80.0144931 177.751944,80.566883 177.799564,81.1527839 C177.845241,81.7171631 177.774296,82.3463039 177.887031,82.8596796 C178.092091,83.7948411 179.681066,83.7067889 180.547956,83.7500288 C181.9688,83.8215712 183.580127,83.9114906 185,84.0048495 C183.904725,85.7941959 182.687969,87.9386993 181.53244,89.9274407 C181.181602,90.5331926 180.963908,90.8965062 181.382775,91.3849207 C181.94742,92.0422657 182.942594,92.5363801 183.635523,93.1113727 C183.641354,93.1893028 183.438237,93.2656606 183.30315,93.3256068 C179.479893,95.0109809 175.661495,96.7461791 171.751743,98.4146503 C171.179323,98.6593489 170.246347,98.8460667 170.092795,99.5772144 C170.030597,99.8789111 170.123894,100.335878 170.156937,100.696539 C170.255094,101.76083 170.390181,102.95779 170.492225,103.97098 C167.867259,102.807433 165.258814,101.468961 162.587198,100.219917 C161.71059,99.8101204 160.864109,99.3285849 159.94571,99.0298364 C158.954424,102.582389 158.175972,106.350158 157.249799,110 C156.972276,109.92263 156.69432,109.845698 156.416221,109.768912 L156.35245,110 C155.934293,109.880189 155.515156,109.760379 155.096019,109.641558 C156.174219,106.004658 157.439464,102.343994 158.4119,98.7556128 C157.464925,98.5308438 156.486613,98.5021289 155.519073,98.3942002 C152.571405,98.0679387 149.631572,97.8508931 146.768124,97.475024 C147.376264,96.6542709 148.108774,95.6926163 148.740417,94.8251271 C148.954882,94.5318383 149.271193,94.1863675 149.37206,93.8930787 C149.615904,93.1814425 148.906897,92.5295136 148.537704,92.017991 C146.021904,88.5218936 143.617743,85.0162905 141.185183,81.5514825 C141.099985,81.4291963 140.963863,81.2563123 141.00891,81.1918522 C141.903004,81.0601594 143.015479,81.1568001 143.841022,80.8867803 C144.454058,80.6852805 144.453079,80.2572293 144.460913,79.5499498 C144.487354,77.2261164 144.539256,74.7354391 144.514774,72.615383 C145.787853,73.2814713 147.225453,74.0512306 148.48776,74.7365283 C149.258462,75.1549748 150.584423,76.0662296 151.242507,75.3672675 C151.603865,74.9834771 151.866316,74.4032366 152.195358,73.9401334 C152.53811,73.4594051 152.88282,73.019769 153.190318,72.5872621 C154.056011,74.2314418 154.913871,76.1499981 155.753124,77.8894323 C156.045932,78.499873 156.275086,79.146554 156.610004,79.6785731 C156.743187,79.8899747 157.090836,80.4347671 157.482552,80.4213998 C157.906586,80.4063492 157.967302,79.2183414 157.985908,78.834947 C158.189601,74.729201 158.43932,70.6343469 158.652806,66.6077156 C159.607615,67.5158018 160.620202,68.6015249 161.608308,69.612787 C161.871737,69.8823117 162.361383,70.4778008 162.844174,70.490376 C163.105644,70.4959209 163.437624,69.9688526 163.67853,69.7088336 C165.474551,67.7745337 167.264695,65.8852865 169,64 L168.36,64.691 L168.550469,64 L168.633,64.396 L169,64 Z" id="Combined-Shape" fill="#FFFFFF"></path>
            <path d="M140.641259,127.54714 L143.551644,128.274917 C144.087431,128.408897 144.630384,128.083168 144.764364,127.547381 C144.898344,127.011594 144.572615,126.46864 144.036828,126.33466 L141.126443,125.606884 C140.590656,125.472904 140.047703,125.798633 139.913723,126.33442 C139.779743,126.870207 140.105472,127.41316 140.641259,127.54714 Z M146.462029,129.002694 L149.372414,129.730471 C149.908201,129.864451 150.451154,129.538722 150.585134,129.002935 C150.719114,128.467148 150.393385,127.924194 149.857598,127.790214 L146.947213,127.062437 C146.411426,126.928457 145.868473,127.254186 145.734493,127.789973 C145.600513,128.32576 145.926242,128.868714 146.462029,129.002694 Z M152.282799,130.458248 L155.193184,131.186024 C155.728971,131.320004 156.271924,130.994275 156.405904,130.458488 C156.539884,129.922701 156.214155,129.379748 155.678368,129.245768 L152.767983,128.517991 C152.232196,128.384011 151.689243,128.70974 151.555263,129.245527 C151.421283,129.781314 151.747012,130.324267 152.282799,130.458248 Z M158.103569,131.913801 L161.013954,132.641578 C161.549741,132.775558 162.092694,132.449829 162.226674,131.914042 C162.360654,131.378255 162.034925,130.835301 161.499138,130.701321 L158.588753,129.973544 C158.052966,129.839564 157.510013,130.165293 157.376033,130.701081 C157.242053,131.236868 157.567782,131.779821 158.103569,131.913801 Z M163.924339,133.369355 L166.834724,134.097132 C167.370511,134.231112 167.913464,133.905383 168.047444,133.369596 C168.181424,132.833808 167.855695,132.290855 167.319908,132.156875 L164.409523,131.429098 C163.873736,131.295118 163.330783,131.620847 163.196803,132.156634 C163.062823,132.692421 163.388552,133.235375 163.924339,133.369355 Z M169.745109,134.824908 L172.305006,135.465042 C172.840793,135.599022 173.383747,135.273293 173.517727,134.737505 C173.651707,134.201718 173.325978,133.658765 172.790191,133.524785 L170.230293,132.884652 C169.694506,132.750672 169.151553,133.076401 169.017573,133.612188 C168.883593,134.147975 169.209322,134.690928 169.745109,134.824908 Z" id="Path" fill="#FFFFFF" fill-rule="nonzero"></path>
            <path d="M130.246194,61.5582112 L54.8076,61.5582112 C50.389322,61.5582112 46.8076,65.1399332 46.8076,69.5582112 L46.8076,185.369163 C46.8076,189.787441 50.389322,193.369163 54.8076,193.369163 L130.246194,193.369163 C134.664472,193.369163 138.246194,189.787441 138.246194,185.369163 L138.246194,69.5582112 C138.246194,65.1399332 134.664472,61.5582112 130.246194,61.5582112 Z M54.8076,63.5582112 L130.246194,63.5582112 C133.559902,63.5582112 136.246194,66.2445027 136.246194,69.5582112 L136.246194,185.369163 C136.246194,188.682872 133.559902,191.369163 130.246194,191.369163 L54.8076,191.369163 C51.4938915,191.369163 48.8076,188.682872 48.8076,185.369163 L48.8076,69.5582112 C48.8076,66.2445027 51.4938915,63.5582112 54.8076,63.5582112 Z" id="Rectangle" fill="#F2F3F2" fill-rule="nonzero"></path>
            <rect id="Rectangle" fill="#C41F3E" fill-rule="nonzero" x="48.789848" y="63.5404593" width="87.4740976" height="127.846456" rx="6"></rect>
            <g id="Clipped" transform="translate(48.789848, 63.540459)">
                <mask id="mask-2" fill="white">
                    <use xlink:href="#path-1"></use>
                </mask>
                <g id="Rectangle"></g>
                <polygon id="Path" fill="#8B1D41" fill-rule="nonzero" mask="url(#mask-2)" points="0.210151978 128.459541 84.8802517 1.85723922 89.210152 -0.540459257 89.210152 128.459541"></polygon>
            </g>
            <rect id="Rectangle" fill="#FFFFFF" fill-rule="nonzero" x="64.170084" y="164.472141" width="57.6752465" height="4.80626727"></rect>
            <rect id="Rectangle" fill="#FFFFFF" fill-rule="nonzero" x="59.3643373" y="175.046041" width="67.2878203" height="4.80626727"></rect>
            <rect id="Rectangle" fill="#FFFFFF" fill-rule="nonzero" x="59.3643373" y="80.8432493" width="67.2878203" height="6.72878203"></rect>
            <path d="M76,115 C79.1342639,110.214732 84.1685989,106.838728 90,106 C88.922189,107.24654 87.8530101,108.648772 86.8465647,110.191629 C85.8293793,111.751563 84.9376609,113.355692 84.191484,115 L76,115 Z M75.6170138,117.181419 L83,117.181419 C82.1155178,119.706657 81.5797884,122.319678 81.4625622,125 L73,125 C73.1488452,122.132407 73.8673041,119.423799 75.038056,117 C75.2044569,117.115094 75.4033261,117.181419 75.6170138,117.181419 Z M85.8012076,117 C84.7671587,119.588822 84.1379738,122.264471 84,125 L102,125 C101.870178,122.263473 101.277424,119.587824 100.303254,117 L85.8012076,117 Z M102,117.181419 C102.844199,119.707632 103.355287,122.319678 103.467593,125 L112,125 C111.849624,122.132407 111.125345,119.423799 109.944228,117 C109.77672,117.115094 109.575902,117.181419 109.360807,117.181419 L102,117.181419 Z M102,127 L84,127 C84.1379738,129.736527 84.7671587,132.412176 85.801107,135 L100.303254,135 C101.277424,132.413174 101.870178,129.737525 102,127 Z M102,134.817628 C102.844199,132.292698 103.355287,129.679995 103.467593,127 L112,127 C111.849624,129.868219 111.125345,132.575521 109.944228,135 C109.77672,134.88492 109.575902,134.817628 109.360807,134.817628 L102,134.817628 Z M99,137 L87,137 C87.5718976,138.195727 88.2243361,139.370424 88.9486239,140.521086 C89.9822308,142.162457 91.090198,143.636586 92.1967166,144.916435 C92.5800097,145.360076 92.91183,145.722599 93.1771125,146 C93.4236601,145.726605 93.7293095,145.372093 94.0811202,144.94047 C95.1257364,143.660621 96.1718976,142.187493 97.1480444,140.546122 C97.8368904,139.387449 98.4569773,138.20474 99,137 Z M96,146 C96.9666518,144.756139 97.9249795,143.360216 98.8276524,141.826425 C99.7496836,140.260194 100.557888,138.650372 101.235426,137 L109,137 C106.0682,141.685515 101.410617,145.031877 96,146 Z M93.4502629,148.995088 C93.5356068,149.002947 93.6217355,149.000982 93.7067852,148.988212 C105.529766,148.60706 115,138.68433 115,126.500228 C115,114.315144 105.529766,104.393397 93.7066871,104.011263 C93.6217355,103.999474 93.5356068,103.996527 93.4502629,104.004386 C93.3015486,104.001439 93.1524419,104.000457 93.003041,104.000457 L93,104.000457 L92.9952914,104.000457 C80.8472192,104.002421 71,114.075451 71,126.500228 C71,138.924024 80.8455515,148.995088 92.9923485,149 L93.0067687,149 C93.1549924,149 93.3028238,148.998035 93.4502629,148.995088 Z M93.1771125,106 C92.91183,106.27737 92.5800097,106.639853 92.1967166,107.083445 C91.090198,108.364152 89.9822308,109.837116 88.9486239,111.479306 C88.2243361,112.62984 87.5718976,113.804406 87,115 L99,115 C98.4568807,113.795394 97.8368904,112.611816 97.1480444,111.453271 C96.1718976,109.812083 95.1257364,108.339119 94.0811202,107.059413 C93.7293095,106.628838 93.4236601,106.274366 93.1771125,106 Z M96,106 C96.9666518,107.244735 97.9249795,108.6405 98.8276524,110.173105 C99.7496836,111.73916 100.557888,113.349814 101.235426,115 L109,115 C106.0682,110.313999 101.410617,106.968014 96,106 Z M73,127 L81.4625622,127 C81.5797884,129.68097 82.1155178,132.292698 83,134.817628 L75.6170138,134.817628 C75.4033261,134.817628 75.2044569,134.88492 75.038056,135 C73.8673041,132.575521 73.1488452,129.868219 73,127 Z M76,137 L84.191484,137 C84.9376609,138.644492 85.8293793,140.2488 86.8465647,141.807903 C87.8530101,143.350932 88.922189,144.753321 90,146 C84.1685989,145.162183 79.1342639,141.785802 76,137 Z" id="Shape" fill="#FFFFFF"></path>
            <g id="Clipped" transform="translate(70.498119, 103.606685)">
                <mask id="mask-4" fill="white">
                    <use xlink:href="#path-3"></use>
                </mask>
                <g id="Shape"></g>
            </g>
        </g>
    </g>
</svg>