<?xml version="1.0" encoding="UTF-8"?>
<svg width="256px" height="256px" viewBox="0 0 256 256" version="1.1" xmlns="http://www.w3.org/2000/svg" xmlns:xlink="http://www.w3.org/1999/xlink">
    <!-- Generator: Sketch 56.3 (81716) - https://sketch.com -->
    <title>Icons/Illustrative/currency/payment-overview-256x256</title>
    <desc>Created with Sketch.</desc>
    <g id="Icons/Illustrative/currency/payment-overview-256x256" stroke="none" stroke-width="1" fill="none" fill-rule="evenodd">
        <g id="Icons/Illustrative/Oval" fill="#F2F3F2">
            <circle id="Oval" cx="128" cy="128" r="128"></circle>
        </g>
        <g id="Group" transform="translate(44.000000, 77.000000)" fill-rule="nonzero">
            <g id="Layer_1">
                <path d="M162.27,0.14000003 L40.8,0.14000003 C38.0385763,0.14000003 35.8,2.37857628 35.8,5.14000003 L35.8,15.14 L144.74,15.14 C149.158278,15.14 152.74,18.721722 152.74,23.14 L152.74,65.7100001 L162.27,65.7100001 C165.031424,65.7100001 167.27,63.4714238 167.27,60.7100001 L167.27,5.14000003 C167.27,2.37857628 165.031424,0.14000003 162.27,0.14000003 L162.27,0.14000003 Z" id="Path" fill="#C4203F"></path>
                <path d="M38.665,3.315 L94.285,3.315 C97.0464237,3.315 99.285,5.55357625 99.285,8.315 L99.285,129.785 C99.285,132.546424 97.0464237,134.785 94.285,134.785 L38.665,134.785 C35.9035763,134.785 33.665,132.546424 33.665,129.785 L33.665,8.315 C33.665,5.55357625 35.9035763,3.315 38.665,3.315 Z" id="Rectangle" fill="#C4203F" transform="translate(66.475000, 69.050000) rotate(90.000000) translate(-66.475000, -69.050000) "></path>
                <path d="M127.2,36.24 C129.961424,36.24 132.2,38.4785763 132.2,41.24 L132.2,96.8600001 C132.2,99.6214238 129.961424,101.86 127.2,101.86 L5.73000002,101.86 C2.96857627,101.86 0.730000017,99.6214238 0.730000017,96.8600001 L0.730000017,41.24 C0.730000017,38.4785763 2.96857627,36.24 5.73000002,36.24 L127.2,36.24" id="Path" fill="#C4203F"></path>
                <ellipse id="Oval" fill="#FFFFFF" cx="66.47" cy="69.0500001" rx="32.47" ry="24.63"></ellipse>
                <path d="M75.09,55.58 L74.37,59.9200001 C72.8996769,59.0270825 71.2910528,58.3849846 69.61,58.0200001 L68.43,65.7000001 C73.7,67.4700001 76.19,69.6200001 76.19,74.2100001 C76.19,79.6500001 72.31,82.5600001 66.19,82.5600001 L66,82.5600001 L65.24,87.5600001 L62.33,86.9300001 C62.33,86.9300001 63.05,82.3300001 63.01,82.3300001 C60.8390379,82.0238633 58.7318504,81.3687441 56.77,80.3900001 L57.44,76.0500001 C59.4159102,77.2087476 61.5891507,77.9919279 63.85,78.3600001 L65.16,69.6400001 C60.06,67.9100001 57.49,66.1000001 57.49,61.5900001 C57.49,56.5300001 61.15,53.7400001 66.97,53.7400001 L67.39,53.7400001 L67.9,50.58 L70.9,51.2500001 L70.48,54.0400001 C72.0824964,54.3298777 73.635027,54.8485105 75.09,55.58 L75.09,55.58 Z M66.4,57.6800001 C63.4,57.6800001 62.02,58.9500001 62.02,61.0200001 C62.02,62.8300001 62.9,63.8000001 65.86,64.8600001 L66.95,57.6800001 L66.4,57.6800001 Z M66.53,78.5600001 C69.9,78.5600001 71.59,77.1700001 71.59,74.6800001 C71.59,72.8200001 70.83,71.6000001 67.67,70.4600001 L66.45,78.5600001 L66.53,78.5600001 Z" id="Shape" fill="#8B1D41"></path>
                <path d="M144.74,18.19 L23.26,18.19 C20.4985763,18.19 18.26,20.4285763 18.26,23.19 L18.26,33.19 L127.2,33.19 C131.618278,33.19 135.2,36.771722 135.2,41.19 L135.2,83.7600001 L144.74,83.7600001 C147.501424,83.7600001 149.74,81.5214238 149.74,78.7600001 L149.74,23.19 C149.74,20.4285763 147.501424,18.19 144.74,18.19 Z" id="Path" fill="#C4203F"></path>
            </g>
        </g>
    </g>
</svg>