<?xml version="1.0" encoding="UTF-8"?>
<svg width="256px" height="256px" viewBox="0 0 256 256" version="1.1" xmlns="http://www.w3.org/2000/svg" xmlns:xlink="http://www.w3.org/1999/xlink">
    <!-- Generator: Sketch 55.2 (78181) - https://sketchapp.com -->
    <title>Icons/Illustrative/professions/students-256x256</title>
    <desc>Created with Sketch.</desc>
    <g id="Icons/Illustrative/professions/students-256x256" stroke="none" stroke-width="1" fill="none" fill-rule="evenodd">
        <g id="Icons/Illustrative/Oval" fill="#F2F3F2">
            <circle id="Oval" cx="128" cy="128" r="128"></circle>
        </g>
        <g id="Group-10-Copy" transform="translate(52.000000, 59.000000)">
            <polygon id="Fill-1" fill="#C41F3E" points="75.9994429 0 0 40.5 75.9994429 81 152 40.5"></polygon>
            <g id="Group-9" transform="translate(33.000000, 32.000000)">
                <path d="M47.8722205,6.12423368 C47.8722205,8.99404421 45.549175,11.3215811 42.6849023,11.3215811 C39.8195159,11.3215811 37.4975841,8.99404421 37.4975841,6.12423368 C37.4975841,3.25330737 39.8195159,0.925770526 42.6849023,0.925770526 C45.549175,0.925770526 47.8722205,3.25330737 47.8722205,6.12423368" id="Fill-2" fill="#FFFFFF"></path>
                <g id="Group-6" transform="translate(0.000000, 3.347368)" fill="#8B1D41">
                    <path d="M80.797325,80.5857747 L80.7449841,80.5857747 L78.7259614,102.652743 L97.7312795,102.652743 L95.7111432,80.5857747 L95.6599159,80.5857747 C95.4472114,77.5151221 93.4070295,74.9543853 90.6162568,74.0048484 L90.6162568,22.1005537 L43.7221432,0.513374737 L41.6474386,5.04013263 L85.6449841,25.2928274 L85.6449841,26.9017958 L43.6597795,49.2655642 L0.367165909,26.2044274 L0.367165909,41.5041326 C0.367165909,55.2997537 20.1431205,66.4844274 44.5384386,66.4844274 C63.2263705,66.4844274 79.192575,59.9180063 85.6449841,50.64468 L85.6449841,74.0729116 C82.9544386,75.0748905 81.0044614,77.5865326 80.797325,80.5857747" id="Fill-4"></path>
                </g>
                <path d="M47.8722205,6.12423368 C47.8722205,8.99404421 45.549175,11.3215811 42.6849023,11.3215811 C39.8195159,11.3215811 37.4975841,8.99404421 37.4975841,6.12423368 C37.4975841,3.25330737 39.8195159,0.925770526 42.6849023,0.925770526 C45.549175,0.925770526 47.8722205,3.25330737 47.8722205,6.12423368" id="Fill-7" fill="#FFFFFF"></path>
            </g>
        </g>
    </g>
</svg>